<?xml version="1.0" encoding="UTF-8" standalone="no"?>
<svg width="45px" height="59px" viewBox="0 0 45 59" version="1.1" xmlns="http://www.w3.org/2000/svg" xmlns:xlink="http://www.w3.org/1999/xlink">
    <!-- Generator: Sketch 39.1 (31720) - http://www.bohemiancoding.com/sketch -->
    <title>Logo</title>
    <desc>Created with Sketch.</desc>
    <defs>
        <polygon id="path-1" points="4.04954976 6.51085202 4.04954976 0.0241497811 0.034192287 0.0241497811 0.034192287 6.51085202 4.04954976 6.51085202"></polygon>
        <polygon id="path-3" points="0 7.02712377 18.141689 7.02712377 18.141689 0.00010400641 0 0.00010400641"></polygon>
    </defs>
    <g id="Page-1" stroke="none" stroke-width="1" fill="none" fill-rule="evenodd">
        <g id="Homepage" transform="translate(-489.000000, -841.000000)">
            <g id="Logo" transform="translate(489.000000, 841.000000)">
                <g id="Page-1" transform="translate(0.000000, 10.053953)">
                    <path d="M1.01896462,41.1646633 L1.01896462,43.7418238 L1.8574876,43.7418238 C2.98672212,43.7418238 3.25679492,43.1084839 3.25679492,42.4076667 C3.25679492,41.6961952 2.86642769,41.1646633 1.94770842,41.1646633 L1.01896462,41.1646633 Z M1.01896462,44.1620773 L1.01896462,47.9212748 L0,47.9212748 L0,40.2418812 L2.20716701,40.2418812 C3.37649968,40.2418812 4.33531708,41.2143834 4.33531708,42.3987881 C4.33531708,43.5204508 3.6459828,44.4124537 2.43773134,44.5627979 L4.82475032,47.9212748 L3.61531951,47.9212748 L1.01896462,44.1620773 Z" id="Fill-1" fill="#FBF3E5"></path>
                    <path d="M8.16940736,42.5080541 C6.96174558,42.5080541 6.11260839,43.5604636 6.11260839,44.9141536 C6.11260839,46.1074369 6.99063983,47.1799713 8.18002157,47.1799713 C9.35819942,47.1799713 10.1973121,46.3672838 10.1973121,44.7833423 C10.1973121,43.4912106 9.54807593,42.5080541 8.16940736,42.5080541 M5.12371737,44.8744958 C5.12371737,43.0792437 6.37206698,41.6154592 8.08036589,41.6154592 C8.96783218,41.6154592 9.568125,41.9463349 10.1371649,42.6181486 L10.1371649,41.7663953 L11.0664983,41.7663953 L11.0664983,47.9210381 L10.1177055,47.9210381 L10.1177055,47.0888177 C9.73795244,47.6209415 8.93834825,48.092099 8.03967806,48.092099 C6.35260758,48.092099 5.12371737,46.6081897 5.12371737,44.8744958" id="Fill-3" fill="#FBF3E5"></path>
                    <path d="M13.0134991,44.7536877 C13.0134991,45.9670959 13.712858,47.1893826 15.1103962,47.1893826 C16.2991883,47.1893826 17.0982028,46.3382212 17.0982028,44.9140944 C17.0982028,43.3804649 16.3787949,42.4967486 15.0107406,42.4967486 C13.78244,42.4967486 13.0134991,43.5805293 13.0134991,44.7536877 M15.0013057,48.1021023 C13.0936954,48.1021023 12.0246081,46.4779111 12.0246081,44.7637502 C12.0246081,43.2395912 13.1426388,41.6154 14.9305443,41.6154 C15.6994852,41.6154 16.3298516,41.8166482 17.007982,42.5778398 L17.007982,40.2421772 L17.9974627,40.2421772 L17.9974627,47.9215708 L17.0292104,47.9215708 L17.0292104,47.0189135 C16.729064,47.5605079 15.9094108,48.1021023 15.0013057,48.1021023" id="Fill-5" fill="#FBF3E5"></path>
                    <path d="M20.6839205,41.7663953 L22.011287,41.7663953 L22.011287,42.577899 L20.6839205,42.577899 L20.6839205,47.9210381 L19.6944398,47.9210381 L19.6944398,42.577899 L18.8447129,42.577899 L18.8447129,41.7663953 L19.7150785,41.7663953 L19.7150785,41.6059887 C19.7150785,40.6530194 20.2540448,39.8012661 21.4227877,39.8012661 C21.7630323,39.8012661 22.0219012,39.871703 22.2913843,39.9415479 L22.2913843,40.8738005 C22.0720239,40.7524597 21.8420492,40.6636737 21.5424925,40.6636737 C21.0825432,40.6636737 20.6839205,40.9442373 20.6839205,41.6059887 L20.6839205,41.7663953 Z" id="Fill-7" fill="#FBF3E5"></path>
                    <g id="Group-11" transform="translate(22.407787, 41.591250)" fill="#FBF3E5">
                        <path d="M3.50900046,0.936455115 C2.17101971,0.936455115 1.27175984,1.98886469 1.27175984,3.28336399 C1.27175984,4.53465412 2.26065086,5.559836 3.52904953,5.559836 C4.80688306,5.559836 5.78633922,4.6157453 5.78633922,3.24252245 C5.78633922,1.9799861 4.89710389,0.936455115 3.50900046,0.936455115 M0.262819753,3.26264727 C0.262819753,1.47804947 1.6615374,0.024327353 3.49838624,0.024327353 C5.31636537,0.024327353 6.79468963,1.33776765 6.79468963,3.25199295 C6.79468963,5.04724506 5.3375938,6.51102959 3.54850892,6.51102959 C1.75116855,6.51102959 0.262819753,5.06796179 0.262819753,3.26264727" id="Fill-9"></path>
                    </g>
                    <path d="M32.478377,42.6178527 C31.3697813,42.6178527 31.1698802,43.9821969 31.1698802,44.6735436 L31.1698802,47.921334 L30.1803995,47.921334 L30.1803995,41.7660994 L31.1498311,41.7660994 L31.1498311,42.6385694 C31.5295842,41.9460389 32.0591155,41.654821 32.7272214,41.654821 C32.937147,41.654821 33.1771462,41.7063168 33.3970963,41.7761618 L33.1565074,42.748664 C33.1565074,42.748664 32.7773441,42.6178527 32.478377,42.6178527" id="Fill-12" fill="#FBF3E5"></path>
                    <path d="M34.6055836,44.7536877 C34.6055836,45.9670959 35.3049424,47.1893826 36.7024807,47.1893826 C37.8912728,47.1893826 38.6896976,46.3382212 38.6896976,44.9140944 C38.6896976,43.3804649 37.9708794,42.4967486 36.602825,42.4967486 C35.3739348,42.4967486 34.6055836,43.5805293 34.6055836,44.7536877 M36.5922108,48.1021023 C34.6851902,48.1021023 33.6155132,46.4779111 33.6155132,44.7637502 C33.6155132,43.2395912 34.7353129,41.6154 36.5226287,41.6154 C37.292749,41.6154 37.9219361,41.8166482 38.6000665,42.5778398 L38.6000665,40.2421772 L39.5895472,40.2421772 L39.5895472,47.9215708 L38.6201155,47.9215708 L38.6201155,47.0189135 C38.3205588,47.5605079 37.5020849,48.1021023 36.5922108,48.1021023" id="Fill-14" fill="#FBF3E5"></path>
                    <g id="Group-18" transform="translate(40.442880, 41.591250)">
                        <mask id="mask-2" fill="white">
                            <use xlink:href="#path-1"></use>
                        </mask>
                        <g id="Clip-17"></g>
                        <path d="M0.304265087,1.70812349 C0.304265087,0.746867495 1.06377113,0.0241497811 2.13226875,0.0241497811 C2.9413078,0.0241497811 3.56990519,0.485836773 3.84941284,1.22749549 L3.04096348,1.58796649 C2.95074265,1.3577149 2.71074346,0.877086903 2.11163,0.877086903 C1.64224584,0.877086903 1.28254189,1.20677877 1.28254189,1.64834094 C1.28254189,2.1899353 1.7424912,2.42018689 2.23251412,2.64037607 C2.45187456,2.74159206 2.59162838,2.81084511 2.83162758,2.92153161 C3.56990519,3.26246969 4.04990357,3.85378419 4.04990357,4.62681395 C4.04990357,5.81891344 3.08047195,6.51085202 2.00253946,6.51085202 C1.11389381,6.51085202 0.394485913,6.05034884 0.034192287,5.26784858 L0.863280402,4.8262864 C0.9735503,5.07784662 1.30318064,5.62950339 1.98190071,5.62950339 C2.69187375,5.62950339 3.07103709,5.24713185 3.07103709,4.73631663 C3.07103709,4.31547118 2.80155397,3.96506259 2.38229248,3.78334733 C1.9931046,3.6140621 1.61276191,3.43293874 1.40283632,3.33349846 C0.554288814,2.93100211 0.304265087,2.27990507 0.304265087,1.70812349" id="Fill-16" fill="#FBF3E5" mask="url(#mask-2)"></path>
                    </g>
                    <path d="M41.1545542,37.6386769 C41.1545542,38.4395262 41.7796135,38.9769772 42.5467853,38.9769772 C43.2915494,38.9769772 43.897739,38.3856627 43.897739,37.6262468 C43.897739,36.8626876 43.3387237,36.2767002 42.5231982,36.2767002 C41.773127,36.2767002 41.1545542,36.8082322 41.1545542,37.6386769 M42.5361711,39.5801299 C41.475929,39.5801299 40.6126395,38.7431742 40.6126395,37.6445959 C40.6126395,36.5560801 41.3921946,35.6723638 42.529095,35.6723638 C43.5946442,35.6723638 44.4638305,36.5448338 44.4638305,37.6138168 C44.4638305,38.6893107 43.6070275,39.5801299 42.5361711,39.5801299" id="Fill-19" fill="#FBF3E5"></path>
                    <path d="M40.7022117,34.3762664 L40.7022117,33.581928 L41.1839791,33.581928 L41.1839791,34.3762664 L44.3570397,34.3762664 L44.3570397,34.9687647 L41.1839791,34.9687647 L41.1839791,35.4754365 L40.7022117,35.4754365 L40.7022117,34.9563346 L40.6060941,34.9563346 C40.041182,34.9563346 39.5352378,34.6343376 39.5352378,33.9341123 C39.5352378,33.7310884 39.5771049,33.5760089 39.6183824,33.4138266 L40.1726803,33.4138266 C40.1007395,33.5464136 40.0476685,33.683144 40.0476685,33.8630835 C40.0476685,34.13832 40.2139578,34.3762664 40.6060941,34.3762664 L40.7022117,34.3762664 Z" id="Fill-21" fill="#FBF3E5"></path>
                    <path d="M40.9576015,31.6583506 C40.1957368,31.6583506 39.7015861,31.0362569 39.7015861,30.2661867 C39.7015861,29.7820073 39.9227156,29.3937167 40.20812,29.1190721 L40.6126395,29.4594183 C40.6126395,29.4594183 40.2376039,29.8127864 40.2376039,30.2839439 C40.2376039,30.7917996 40.5654652,31.048687 40.9039408,31.048687 C41.2500821,31.048687 41.4700322,30.7977187 41.5773537,30.4632915 C41.6599087,30.2058123 41.7495399,30.0158103 41.8568614,29.758331 C42.0827083,29.2137771 42.5173014,28.8692876 43.10698,28.8692876 C43.8806383,28.8692876 44.4638305,29.5612262 44.4638305,30.3383993 C44.4638305,30.9889044 44.1902196,31.4251394 43.7379361,31.8371063 L43.3505173,31.4138932 C43.5834403,31.2286265 43.9042255,30.8515821 43.9042255,30.3620755 C43.9042255,29.8707932 43.6129243,29.4594183 43.136464,29.4594183 C42.7195612,29.4594183 42.5055078,29.7760882 42.3574985,30.1401106 C42.2560738,30.391079 42.1900298,30.5645075 42.0950915,30.8042296 C41.8922421,31.3120853 41.5054129,31.6583506 40.9576015,31.6583506" id="Fill-23" fill="#FBF3E5"></path>
                    <path d="M41.1545542,26.5502575 C41.1545542,27.3516988 41.7796135,27.8885579 42.5467853,27.8885579 C43.2915494,27.8885579 43.897739,27.2966515 43.897739,26.5384194 C43.897739,25.7736763 43.3387237,25.1882809 42.5231982,25.1882809 C41.773127,25.1882809 41.1545542,25.7204047 41.1545542,26.5502575 M42.5361711,28.4917105 C41.475929,28.4917105 40.6126395,27.6559387 40.6126395,26.5555847 C40.6126395,25.4688445 41.3921946,24.5851283 42.529095,24.5851283 C43.5946442,24.5851283 44.4638305,25.4570064 44.4638305,26.5265813 C44.4638305,27.6014833 43.6070275,28.4917105 42.5361711,28.4917105" id="Fill-25" fill="#FBF3E5"></path>
                    <path d="M40.6126395,20.3427575 C40.6126395,19.6070179 41.0767166,19.1471066 41.7436431,19.1471066 L44.3570987,19.1471066 L44.3570987,19.7396049 L41.9040357,19.7396049 C41.4340618,19.7396049 41.160451,19.9177687 41.160451,20.4143782 C41.160451,21.0536371 41.624528,21.2684991 41.96949,21.2684991 L44.3570987,21.2684991 L44.3570987,21.8604055 L41.9040357,21.8604055 C41.457649,21.8604055 41.1486574,22.0279151 41.1486574,22.5002564 C41.1486574,23.1803568 41.672292,23.4082408 42.1304723,23.4082408 L44.3570987,23.4082408 L44.3570987,23.9989634 L40.7022707,23.9989634 L40.7022707,23.425998 L41.1716548,23.425998 C40.916324,23.2644075 40.6126395,22.9299804 40.6126395,22.4043675 C40.6126395,21.8657327 40.8148993,21.6337054 41.178731,21.4064133 C40.8927369,21.155445 40.6126395,20.8618594 40.6126395,20.3427575" id="Fill-27" fill="#FBF3E5"></path>
                    <path d="M41.1070261,16.8000202 C41.1070261,17.43336 41.6306607,17.8873522 42.1654992,17.9471348 L42.1654992,15.6949309 C41.6306607,15.7482025 41.1070261,16.1074897 41.1070261,16.8000202 M42.5358173,18.5751474 C41.5168527,18.5751474 40.6128754,17.8814331 40.6128754,16.7941011 C40.6128754,15.7180153 41.4820617,15.0911864 42.6183723,15.0911864 L42.6183723,17.989752 C43.308886,17.989752 43.9516357,17.534576 43.9516357,16.7579948 C43.9516357,16.2744073 43.6007769,15.8387642 43.2080509,15.6825009 L43.4645611,15.1864833 C43.9581221,15.4267973 44.4634767,16.0406042 44.4634767,16.7704248 C44.4634767,17.8814331 43.5589097,18.5751474 42.5358173,18.5751474" id="Fill-29" fill="#FBF3E5"></path>
                    <path d="M41.2083918,13.1439327 C41.2083918,13.8074598 42.0180205,13.926433 42.4284369,13.926433 L44.3572756,13.926433 L44.3572756,14.5183394 L40.7024476,14.5183394 L40.7024476,13.9382711 L41.2207751,13.9382711 C40.8091794,13.710979 40.6364036,13.3954929 40.6364036,12.9953642 C40.6364036,12.8692881 40.6670669,12.7260468 40.7083444,12.5928678 L41.28505,12.737293 C41.28505,12.737293 41.2083918,12.9639932 41.2083918,13.1439327" id="Fill-31" fill="#FBF3E5"></path>
                    <path d="M40.7022117,11.19076 L40.7022117,10.3958297 L41.1839791,10.3958297 L41.1839791,11.19076 L44.3570397,11.19076 L44.3570397,11.7820745 L41.1839791,11.7820745 L41.1839791,12.2893382 L40.7022117,12.2893382 L40.7022117,11.7690525 L40.6060941,11.7690525 C40.041182,11.7690525 39.5352378,11.4476473 39.5352378,10.7486059 C39.5352378,10.5449901 39.5771049,10.3893187 39.6183824,10.2277283 L40.1726803,10.2277283 C40.1007395,10.3603153 40.0476685,10.4976376 40.0476685,10.6763933 C40.0476685,10.9516298 40.2139578,11.19076 40.6060941,11.19076 L40.7022117,11.19076 Z" id="Fill-33" fill="#FBF3E5"></path>
                    <path d="M41.1545542,8.1791994 C41.1545542,8.98004875 41.7796135,9.51809167 42.5467853,9.51809167 C43.2915494,9.51809167 43.897739,8.92618527 43.897739,8.16795317 C43.897739,7.4026182 43.3387237,6.81781468 42.5231982,6.81781468 C41.773127,6.81781468 41.1545542,7.34993853 41.1545542,8.1791994 M42.5361711,10.1212443 C41.475929,10.1212443 40.6126395,9.28428864 40.6126395,8.18511846 C40.6126395,7.09837831 41.3921946,6.21466205 42.529095,6.21466205 C43.5946442,6.21466205 44.4638305,7.08654018 44.4638305,8.15552314 C44.4638305,9.23101707 43.6070275,10.1212443 42.5361711,10.1212443" id="Fill-35" fill="#FBF3E5"></path>
                    <path d="M41.2083918,4.25432725 C41.2083918,4.91785432 42.0180205,5.03682751 42.4284369,5.03682751 L44.3572756,5.03682751 L44.3572756,5.6275501 L40.7024476,5.6275501 L40.7024476,5.04866564 L41.2207751,5.04866564 C40.8091794,4.82137358 40.6364036,4.50529556 40.6364036,4.10516684 C40.6364036,3.97849887 40.6670669,3.83703324 40.7083444,3.7038543 L41.28505,3.84827946 C41.28505,3.84827946 41.2083918,4.07497961 41.2083918,4.25432725" id="Fill-37" fill="#FBF3E5"></path>
                    <path d="M42.475847,2.98267554 C43.1970239,2.98267554 43.9223286,2.5630139 43.9223286,1.72724207 C43.9223286,1.01695439 43.4157947,0.537510202 42.5713749,0.537510202 C41.6603215,0.537510202 41.1360972,0.969009967 41.1360972,1.78702461 C41.1360972,2.52217236 41.7794366,2.98267554 42.475847,2.98267554 M44.4636536,1.79294368 C44.4636536,2.93354731 43.5001187,3.57339813 42.4823335,3.57339813 C41.5777665,3.57339813 40.6124626,2.90395199 40.6124626,1.83556094 C40.6124626,1.37446585 40.7315777,0.998605287 41.1844509,0.592557497 L39.7969371,0.592557497 L39.7969371,5.91906399e-05 L44.3569218,5.91906399e-05 L44.3569218,0.579535556 L43.8209039,0.579535556 C44.1422787,0.759475102 44.4636536,1.24898169 44.4636536,1.79294368" id="Fill-39" fill="#FBF3E5"></path>
                </g>
                <g id="Page-1" transform="translate(14.823613, 9.707265)" fill="#FBF3E5">
                    <path d="M20.1386633,34.0284706 C19.8811461,34.8702292 20.0741978,35.5174957 19.0441291,36.1013184 C19.0441291,36.1013184 15.8322314,37.1715443 10.22339,37.171891 L10.1154879,37.1739712 C4.51733323,37.1715443 1.29509347,36.1030518 1.29509347,36.1030518 C0.265024748,35.5202692 0.457731715,34.872656 0.200559269,34.0315908 C-0.0573026482,33.1894856 0.00716283102,28.5910155 0.00716283102,28.3327329 C0.00716283102,28.0734103 0.0433600252,27.0014509 0.0433600252,27.0014509 L0.0433600252,10.5254487 L0.00716283102,6.83287447 C-0.00490290038,5.20448077 0.329145492,4.9545187 0.329145492,4.9545187 L1.2375227,4.16164316 L1.22166488,3.23217254 L1.20684127,2.99815812 C1.20856494,2.8539359 1.21063335,2.78737179 1.21063335,2.78737179 L1.23062799,1.72754647 C1.23062799,1.27407853 1.49159253,0.952005342 1.49159253,0.952005342 C1.87528279,0.150809295 5.2695454,0.00242681624 5.2695454,0.00242681624 L9.91071516,0.00416025641 L10.1692666,0.00138675214 L15.0693324,3.55271368e-15 C15.0693324,3.55271368e-15 18.4639398,0.148382479 18.8472853,0.949578526 C18.8472853,0.949578526 19.1085946,1.27234509 19.1085946,1.72511966 L19.1282445,2.7842516 C19.1282445,2.7842516 19.134105,2.95482212 19.134105,3.3434594 L19.134105,3.49045513 L19.134105,3.56291293 L19.134105,3.75081784 L19.1175577,4.01222062 L19.1013551,4.15886966 L20.0097323,4.95209188 C20.0097323,4.95209188 20.3441255,5.20240064 20.3320597,6.83010096 L20.2958625,10.5223285 L20.2958625,26.999024 C20.2958625,26.999024 20.3320597,28.0713301 20.3320597,28.3296127 C20.3320597,28.5889354 20.3965252,33.1867121 20.1386633,34.0284706 L20.1386633,34.0284706 Z" id="Fill-1"></path>
                </g>
                <g id="Page-1" transform="translate(15.168348, 0.000000)">
                    <mask id="mask-4" fill="white">
                        <use xlink:href="#path-3"></use>
                    </mask>
                    <g id="Clip-2"></g>
                    <path d="M0,4.9372883 L0.855287989,6.89260881 C0.855287989,6.89260881 1.01145303,7.12523649 1.46650347,6.97893413 C1.46650347,6.97893413 10.4816732,5.68232089 17.8441825,2.72749877 C17.8441825,2.72749877 18.0168949,2.62349236 18.141689,2.34856875 C18.141689,2.34856875 17.7673066,0.866824092 17.2446881,0.108964049 C17.2446881,0.108964049 17.1409228,-0.0643799679 16.6893197,0.026105609 C16.6893197,0.026105609 8.46118033,1.24922099 0.14168616,4.32469054 C0.14168616,4.32469054 0.0193051702,4.54414407 0,4.9372883" id="Fill-1" fill="#FBF3E5" mask="url(#mask-4)"></path>
                </g>
            </g>
        </g>
    </g>
</svg>