<?xml version="1.0" encoding="UTF-8" standalone="no"?>
<svg width="157px" height="157px" viewBox="0 0 157 157" version="1.1" xmlns="http://www.w3.org/2000/svg" xmlns:xlink="http://www.w3.org/1999/xlink">
    <!-- Generator: Sketch 39.1 (31720) - http://www.bohemiancoding.com/sketch -->
    <title>Group</title>
    <desc>Created with Sketch.</desc>
    <defs>
        <polygon id="path-1" points="7.19919958 11.4767561 7.19919958 0.0425691057 0.0607862879 0.0425691057 0.0607862879 11.4767561 7.19919958 11.4767561"></polygon>
        <polygon id="path-3" points="0 12.3867944 32.2518916 12.3867944 32.2518916 0.000183333333 0 0.000183333333"></polygon>
    </defs>
    <g id="Page-1" stroke="none" stroke-width="1" fill="none" fill-rule="evenodd">
        <g id="Outlets" transform="translate(-53.000000, -25.000000)">
            <g id="Group" transform="translate(53.000000, 25.000000)">
                <circle id="Oval" fill="#FBF3E5" cx="78.5" cy="78.5" r="78.5"></circle>
                <g id="Logo" transform="translate(33.000000, 23.000000)">
                    <g id="Page-1" transform="translate(0.000000, 17.722222)">
                        <path d="M1.81149267,72.5614404 L1.81149267,77.1042317 L3.30220017,77.1042317 C5.30972821,77.1042317 5.78985764,75.987836 5.78985764,74.7524973 C5.78985764,73.498378 5.09587144,72.5614404 3.46259275,72.5614404 L1.81149267,72.5614404 Z M1.81149267,77.8450176 L1.81149267,84.4713997 L0,84.4713997 L0,70.9348415 L3.92385246,70.9348415 C6.00266609,70.9348415 7.70723037,72.6490827 7.70723037,74.7368469 C7.70723037,76.7140149 6.4817472,78.2863591 4.33374461,78.5513726 L8.57733391,84.4713997 L6.42723469,84.4713997 L1.81149267,77.8450176 Z" id="Fill-1" fill="#43348B"></path>
                        <path d="M14.5233909,74.9294512 C12.3764366,74.9294512 10.8668594,76.7845461 10.8668594,79.1707114 C10.8668594,81.274126 12.4278041,83.1646951 14.5422606,83.1646951 C16.636799,83.1646951 18.1285548,81.7321612 18.1285548,78.9401287 C18.1285548,76.6624729 16.9743572,74.9294512 14.5233909,74.9294512 M9.10883089,79.1008062 C9.10883089,75.936294 11.3281191,73.3560637 14.3650949,73.3560637 C15.9428128,73.3560637 17.01,73.9393022 18.0216264,75.1235163 L18.0216264,73.6221206 L19.6737748,73.6221206 L19.6737748,84.4709824 L17.9870319,84.4709824 L17.9870319,83.0040176 C17.3119154,83.9419986 15.8903969,84.7725136 14.292761,84.7725136 C11.2935246,84.7725136 9.10883089,82.1568089 9.10883089,79.1008062" id="Fill-3" fill="#43348B"></path>
                        <path d="M23.1351096,78.8878564 C23.1351096,81.0267453 24.3784142,83.1812846 26.8629267,83.1812846 C28.9763348,83.1812846 30.396805,81.6809322 30.396805,79.170607 C30.396805,76.4672602 29.1178576,74.909523 26.685761,74.909523 C24.5021156,74.909523 23.1351096,76.819916 23.1351096,78.8878564 M26.6689879,84.7901463 C23.2776808,84.7901463 21.3770811,81.9271653 21.3770811,78.9055935 C21.3770811,76.2189404 23.3646911,73.3559593 26.5431898,73.3559593 C27.9101959,73.3559593 29.0308473,73.7107019 30.2364124,75.0524634 L30.2364124,70.9353631 L31.9954892,70.9353631 L31.9954892,84.4719214 L30.2741519,84.4719214 L30.2741519,82.8807967 C29.7405582,83.8354715 28.2833969,84.7901463 26.6689879,84.7901463" id="Fill-5" fill="#43348B"></path>
                        <path d="M36.7714142,73.6221206 L39.1311769,73.6221206 L39.1311769,75.0525678 L36.7714142,75.0525678 L36.7714142,84.4709824 L35.0123374,84.4709824 L35.0123374,75.0525678 L33.5017118,75.0525678 L33.5017118,73.6221206 L35.0490285,73.6221206 L35.0490285,73.3393699 C35.0490285,71.6595596 36.0071907,70.158164 38.084956,70.158164 C38.6898352,70.158164 39.1500466,70.2823238 39.6291277,70.4054404 L39.6291277,72.0487331 C39.2391536,71.8348442 38.8303097,71.6783401 38.2977645,71.6783401 C37.4800768,71.6783401 36.7714142,72.172893 36.7714142,73.3393699 L36.7714142,73.6221206 Z" id="Fill-7" fill="#43348B"></path>
                        <g id="Group-11" transform="translate(39.836066, 73.313390)" fill="#43348B">
                            <path d="M6.23822304,1.65070054 C3.8595906,1.65070054 2.26090638,3.50579539 2.26090638,5.78762466 C2.26090638,7.99328862 4.01893486,9.80038889 6.27386583,9.80038889 C8.54556989,9.80038889 10.2868253,8.136229 10.2868253,5.71563279 C10.2868253,3.49014499 8.70596247,1.65070054 6.23822304,1.65070054 M0.467235116,5.75110705 C0.467235116,2.60537534 2.95384426,0.0428821138 6.21935332,0.0428821138 C9.45131622,0.0428821138 12.0794482,2.35809892 12.0794482,5.73232656 C12.0794482,8.89683875 9.48905565,11.4770691 6.30846031,11.4770691 C3.11318852,11.4770691 0.467235116,8.93335637 0.467235116,5.75110705" id="Fill-9"></path>
                        </g>
                        <path d="M57.7393369,75.1229946 C55.7685,75.1229946 55.4131204,77.5279404 55.4131204,78.7465854 L55.4131204,84.4715041 L53.6540436,84.4715041 L53.6540436,73.6215989 L55.3774776,73.6215989 L55.3774776,75.1595122 C56.052594,73.9387805 56.9939832,73.4254472 58.1817269,73.4254472 C58.554928,73.4254472 58.9815932,73.5162195 59.3726156,73.639336 L58.9449021,75.3535772 C58.9449021,75.3535772 58.2708339,75.1229946 57.7393369,75.1229946" id="Fill-12" fill="#43348B"></path>
                        <path d="M61.5210375,78.8878564 C61.5210375,81.0267453 62.7643421,83.1812846 65.2488546,83.1812846 C67.3622627,83.1812846 68.7816846,81.6809322 68.7816846,79.170607 C68.7816846,76.4672602 67.5037856,74.909523 65.071689,74.909523 C62.8869953,74.909523 61.5210375,76.819916 61.5210375,78.8878564 M65.0528192,84.7901463 C61.6625604,84.7901463 59.7609124,81.9271653 59.7609124,78.9055935 C59.7609124,76.2189404 61.7516674,73.3559593 64.9291178,73.3559593 C66.2982204,73.3559593 67.4167752,73.7107019 68.6223404,75.0524634 L68.6223404,70.9353631 L70.3814172,70.9353631 L70.3814172,84.4719214 L68.6579832,84.4719214 L68.6579832,82.8807967 C68.1254379,83.8354715 66.6703732,84.7901463 65.0528192,84.7901463" id="Fill-14" fill="#43348B"></path>
                        <g id="Group-18" transform="translate(71.898454, 73.313390)">
                            <mask id="mask-2" fill="white">
                                <use xlink:href="#path-1"></use>
                            </mask>
                            <g id="Clip-17"></g>
                            <path d="M0.54091571,3.01092954 C0.54091571,1.3165122 1.89114867,0.0425691057 3.79070001,0.0425691057 C5.22899164,0.0425691057 6.34649811,0.856390244 6.84340061,2.16372087 L5.4061573,2.79912737 C5.24576472,2.39326016 4.81909949,1.54605149 3.75400889,1.54605149 C2.91954815,1.54605149 2.28007447,2.12720325 2.28007447,2.90555014 C2.28007447,3.86022493 3.09776213,4.26609214 3.96891398,4.65422222 C4.3588881,4.83263686 4.60733935,4.95471003 5.03400458,5.14981843 C6.34649811,5.75079404 7.19982857,6.79311111 7.19982857,8.15573984 C7.19982857,10.2570678 5.47639457,11.4767561 3.56007015,11.4767561 C1.98025566,11.4767561 0.70130829,10.6650217 0.0607862879,9.28569919 L1.53472071,8.5073523 C1.73075609,8.95078049 2.31676558,9.92319241 3.52337904,9.92319241 C4.78555333,9.92319241 5.45962149,9.24918157 5.45962149,8.34876152 C5.45962149,7.60693225 4.98054039,6.98926287 4.23518663,6.66895122 C3.54329707,6.37055014 2.86713228,6.05128184 2.49393124,5.87599729 C0.985402336,5.1665122 0.54091571,4.01881572 0.54091571,3.01092954" id="Fill-16" fill="#43348B" mask="url(#mask-2)"></path>
                        </g>
                        <path d="M73.1636519,66.3461423 C73.1636519,67.7578089 74.2748684,68.7051802 75.6387295,68.7051802 C76.9627545,68.7051802 78.0404249,67.6628631 78.0404249,66.3242317 C78.0404249,64.9782967 77.0466199,63.9453699 75.5967968,63.9453699 C74.2633369,63.9453699 73.1636519,64.8823076 73.1636519,66.3461423 M75.6198598,69.7683645 C73.7349849,69.7683645 72.2002481,68.2930528 72.2002481,66.3565759 C72.2002481,64.437836 73.5861238,62.8800989 75.60728,62.8800989 C77.5015897,62.8800989 79.0468097,64.4180122 79.0468097,66.3023211 C79.0468097,68.198107 77.5236044,69.7683645 75.6198598,69.7683645" id="Fill-19" fill="#43348B"></path>
                        <path d="M72.3594875,60.5954526 L72.3594875,59.1952629 L73.2159629,59.1952629 L73.2159629,60.5954526 L78.8569594,60.5954526 L78.8569594,61.6398564 L73.2159629,61.6398564 L73.2159629,62.5329729 L72.3594875,62.5329729 L72.3594875,61.6179458 L72.1886117,61.6179458 C71.1843236,61.6179458 70.2848671,61.0503577 70.2848671,59.8160623 C70.2848671,59.4581897 70.3592977,59.1848293 70.4326799,58.8989485 L71.4180984,58.8989485 C71.2902036,59.1326612 71.195855,59.3736775 71.195855,59.6908591 C71.195855,60.1760217 71.4914806,60.5954526 72.1886117,60.5954526 L72.3594875,60.5954526 Z" id="Fill-21" fill="#43348B"></path>
                        <path d="M72.8135138,55.8045501 C71.4590876,55.8045501 70.5805975,54.7079783 70.5805975,53.3505664 C70.5805975,52.4970976 70.9737166,51.8126531 71.4811022,51.3285339 L72.2002481,51.9284661 C72.2002481,51.9284661 71.5335181,52.5513523 71.5335181,53.3818672 C71.5335181,54.2770705 72.1163827,54.7298889 72.7181169,54.7298889 C73.3334793,54.7298889 73.7245017,54.2875041 73.9152955,53.6980054 C74.06206,53.2441436 74.2214042,52.9092249 74.412198,52.4553631 C74.8137036,51.4954715 75.5863136,50.8882358 76.6346311,50.8882358 C78.0100237,50.8882358 79.0468097,52.1079241 79.0468097,53.4778564 C79.0468097,54.6245095 78.5603904,55.3934661 77.7563309,56.119645 L77.0675863,55.3736423 C77.4816717,55.0470705 78.0519564,54.3824499 78.0519564,53.5195908 C78.0519564,52.6536016 77.5340876,51.9284661 76.687047,51.9284661 C75.9458865,51.9284661 75.5653473,52.486664 75.3022196,53.1283306 C75.121909,53.5707154 75.0044974,53.8764201 74.8357183,54.298981 C74.4750971,55.1941843 73.7874008,55.8045501 72.8135138,55.8045501" id="Fill-23" fill="#43348B"></path>
                        <path d="M73.1636519,46.8004539 C73.1636519,48.213164 74.2748684,49.1594919 75.6387295,49.1594919 C76.9627545,49.1594919 78.0404249,48.1161314 78.0404249,46.7795867 C78.0404249,45.431565 77.0466199,44.3996816 75.5967968,44.3996816 C74.2633369,44.3996816 73.1636519,45.3376626 73.1636519,46.8004539 M75.6198598,50.2226762 C73.7349849,50.2226762 72.2002481,48.7494512 72.2002481,46.8098442 C72.2002481,44.8942344 73.5861238,43.3364973 75.60728,43.3364973 C77.5015897,43.3364973 79.0468097,44.8733672 79.0468097,46.7587195 C79.0468097,48.6534621 77.5236044,50.2226762 75.6198598,50.2226762" id="Fill-25" fill="#43348B"></path>
                        <path d="M72.2002481,35.8584201 C72.2002481,34.561523 73.0252739,33.750832 74.2109211,33.750832 L78.8570643,33.750832 L78.8570643,34.7952358 L74.4960634,34.7952358 C73.6605544,34.7952358 73.174135,35.1092873 73.174135,35.9846667 C73.174135,37.1114959 73.9991609,37.4902358 74.6124267,37.4902358 L78.8570643,37.4902358 L78.8570643,38.5335962 L74.4960634,38.5335962 C73.7024871,38.5335962 73.1531687,38.8288672 73.1531687,39.6614688 C73.1531687,40.86029 74.0840746,41.2619837 74.8986173,41.2619837 L78.8570643,41.2619837 L78.8570643,42.3032575 L72.3595923,42.3032575 L72.3595923,41.2932846 L73.1940531,41.2932846 C72.7401316,41.0084472 72.2002481,40.4189485 72.2002481,39.4924444 C72.2002481,38.5429864 72.559821,38.1339892 73.2066329,37.7333388 C72.6981989,37.2909539 72.2002481,36.7734472 72.2002481,35.8584201" id="Fill-27" fill="#43348B"></path>
                        <path d="M73.0791575,29.6135949 C73.0791575,30.7299905 74.0100634,31.530248 74.9608874,31.6356274 L74.9608874,27.6656409 C74.0100634,27.7595434 73.0791575,28.3928631 73.0791575,29.6135949 M75.6192308,32.7426328 C73.8077381,32.7426328 72.2006674,31.5198144 72.2006674,29.6031612 C72.2006674,27.706332 73.7458874,26.6014133 75.7659953,26.6014133 L75.7659953,31.7107493 C76.9935751,31.7107493 78.1362412,30.9084051 78.1362412,29.5395163 C78.1362412,28.6870908 77.5124922,27.9191775 76.8143128,27.6437304 L77.2703309,26.7693943 C78.1477726,27.1929986 79.0461808,28.2749634 79.0461808,29.5614268 C79.0461808,31.5198144 77.4380617,32.7426328 75.6192308,32.7426328" id="Fill-29" fill="#43348B"></path>
                        <path d="M73.2593632,23.1689661 C73.2593632,24.3385732 74.6987032,24.5482886 75.4283322,24.5482886 L78.8573788,24.5482886 L78.8573788,25.5916491 L72.3599068,25.5916491 L72.3599068,24.5691558 L73.2813779,24.5691558 C72.5496523,24.1685054 72.2424953,23.6123943 72.2424953,22.9070827 C72.2424953,22.6848469 72.2970078,22.4323537 72.37039,22.1975976 L73.3956445,22.4521775 C73.3956445,22.4521775 73.2593632,22.8517846 73.2593632,23.1689661" id="Fill-31" fill="#43348B"></path>
                        <path d="M72.3594875,19.7260854 L72.3594875,18.3248523 L73.2159629,18.3248523 L73.2159629,19.7260854 L78.8569594,19.7260854 L78.8569594,20.7684024 L73.2159629,20.7684024 L73.2159629,21.6625623 L72.3594875,21.6625623 L72.3594875,20.7454485 L72.1886117,20.7454485 C71.1843236,20.7454485 70.2848671,20.1789038 70.2848671,18.9466951 C70.2848671,18.5877791 70.3592977,18.3133753 70.4326799,18.0285379 L71.4180984,18.0285379 C71.2902036,18.2622507 71.195855,18.5043103 71.195855,18.8194051 C71.195855,19.3045678 71.4914806,19.7260854 72.1886117,19.7260854 L72.3594875,19.7260854 Z" id="Fill-33" fill="#43348B"></path>
                        <path d="M73.1636519,14.4175718 C73.1636519,15.8292385 74.2748684,16.7776531 75.6387295,16.7776531 C76.9627545,16.7776531 78.0404249,15.7342927 78.0404249,14.397748 C78.0404249,13.0486829 77.0466199,12.0178428 75.5967968,12.0178428 C74.2633369,12.0178428 73.1636519,12.9558238 73.1636519,14.4175718 M75.6198598,17.8408374 C73.7349849,17.8408374 72.2002481,16.3655257 72.2002481,14.4280054 C72.2002481,12.5123957 73.5861238,10.9546585 75.60728,10.9546585 C77.5015897,10.9546585 79.0468097,12.4915285 79.0468097,14.3758374 C79.0468097,16.2716233 77.5236044,17.8408374 75.6198598,17.8408374" id="Fill-35" fill="#43348B"></path>
                        <path d="M73.2593632,7.49915312 C73.2593632,8.66876016 74.6987032,8.87847561 75.4283322,8.87847561 L78.8573788,8.87847561 L78.8573788,9.91974932 L72.3599068,9.91974932 L72.3599068,8.89934282 L73.2813779,8.89934282 C72.5496523,8.49869241 72.2424953,7.94153794 72.2424953,7.23622629 C72.2424953,7.01294715 72.2970078,6.76358401 72.37039,6.52882791 L73.3956445,6.78340786 C73.3956445,6.78340786 73.2593632,7.18301491 73.2593632,7.49915312" id="Fill-37" fill="#43348B"></path>
                        <path d="M75.5126169,5.25759756 C76.7947092,5.25759756 78.0841398,4.51785501 78.0841398,3.04463008 C78.0841398,1.79259756 77.183635,0.94747561 75.6824443,0.94747561 C74.0627938,0.94747561 73.1308395,1.70808537 73.1308395,3.15000949 C73.1308395,4.44586314 74.2745539,5.25759756 75.5126169,5.25759756 M79.0464953,3.16044309 C79.0464953,5.17099864 77.3335444,6.29887127 75.5241484,6.29887127 C73.9160293,6.29887127 72.1999336,5.11883062 72.1999336,3.23556504 C72.1999336,2.42278726 72.4116937,1.76025339 73.2168016,1.04450813 L70.7501104,1.04450813 L70.7501104,0.000104336043 L78.8567498,0.000104336043 L78.8567498,1.0215542 L77.9038292,1.0215542 C78.4751622,1.33873577 79.0464953,2.20159485 79.0464953,3.16044309" id="Fill-39" fill="#43348B"></path>
                    </g>
                    <g id="Page-1" transform="translate(26.353090, 17.111111)" fill="#4C318E">
                        <path d="M35.8020681,59.9823889 C35.3442598,61.4661667 35.6874628,62.6071111 33.8562295,63.6362222 C33.8562295,63.6362222 28.1461892,65.5227222 18.1749155,65.5233333 L17.9830895,65.527 C8.03081463,65.5227222 2.3023884,63.6392778 2.3023884,63.6392778 C0.471155107,62.612 0.813745271,61.4704444 0.356549811,59.9878889 C-0.101871375,58.5035 0.0127339218,50.3977222 0.0127339218,49.9424444 C0.0127339218,49.4853333 0.0770844893,47.5957778 0.0770844893,47.5957778 L0.0770844893,18.5533333 L0.0127339218,12.0443889 C-0.00871626734,9.174 0.585147541,8.73338889 0.585147541,8.73338889 L2.20004035,7.33577778 L2.17184868,5.69738889 L2.14549559,5.28488889 C2.1485599,5.03066667 2.15223707,4.91333333 2.15223707,4.91333333 L2.1877831,3.04516667 C2.1877831,2.24583333 2.65172005,1.67811111 2.65172005,1.67811111 C3.33383607,0.265833333 9.36808071,0.00427777778 9.36808071,0.00427777778 L17.6190492,0.00733333333 L18.0786961,0.00244444444 L26.7899243,-7.10542736e-15 C26.7899243,-7.10542736e-15 32.8247818,0.261555556 33.506285,1.67383333 C33.506285,1.67383333 33.9708348,2.24277778 33.9708348,3.04088889 L34.005768,4.90783333 C34.005768,4.90783333 34.0161866,5.2085 34.0161866,5.89355556 L34.0161866,6.15266667 L34.0161866,6.28038889 L34.0161866,6.61161111 L33.9867692,7.07238889 L33.9579647,7.33088889 L35.5728575,8.72911111 C35.5728575,8.72911111 36.1673342,9.17033333 36.145884,12.0395 L36.0815334,18.5478333 L36.0815334,47.5915 C36.0815334,47.5915 36.145884,49.4816667 36.145884,49.9369444 C36.145884,50.3940556 36.2604893,58.4986111 35.8020681,59.9823889 L35.8020681,59.9823889 Z" id="Fill-1"></path>
                    </g>
                    <g id="Page-1" transform="translate(26.965952, 0.000000)">
                        <mask id="mask-4" fill="white">
                            <use xlink:href="#path-3"></use>
                        </mask>
                        <g id="Clip-2"></g>
                        <path d="M0,8.70301667 L1.52051198,12.1496833 C1.52051198,12.1496833 1.79813871,12.5597389 2.60711728,12.30185 C2.60711728,12.30185 18.6340858,10.0162944 31.7229912,4.80779444 C31.7229912,4.80779444 32.0300353,4.62446111 32.2518916,4.13985 C32.2518916,4.13985 31.5863228,1.52796111 30.6572232,0.192072222 C30.6572232,0.192072222 30.4727516,-0.113483333 29.6699016,0.0460166667 C29.6699016,0.0460166667 15.0420984,2.20201667 0.251886507,7.62318333 C0.251886507,7.62318333 0.0343203026,8.01001667 0,8.70301667" id="Fill-1" fill="#43348B" mask="url(#mask-4)"></path>
                    </g>
                </g>
            </g>
        </g>
    </g>
</svg>